Coordinates
version=1
nRows=17
nColumns=40
inDegrees=yes

Units are S.I. units (second, meters, Newtons, ...)
If the header above contains a line with 'inDegrees', this indicates whether rotational values are in degrees (yes) or radians (no).

endheader
time	pelvis_tilt	pelvis_list	pelvis_rotation	pelvis_tx	pelvis_ty	pelvis_tz	hip_flexion_r	hip_adduction_r	hip_rotation_r	knee_angle_r	knee_angle_r_beta	ankle_angle_r	subtalar_angle_r	mtp_angle_r	hip_flexion_l	hip_adduction_l	hip_rotation_l	knee_angle_l	knee_angle_l_beta	ankle_angle_l	subtalar_angle_l	mtp_angle_l	lumbar_extension	lumbar_bending	lumbar_rotation	arm_flex_r	arm_add_r	arm_rot_r	elbow_flex_r	pro_sup_r	wrist_flex_r	wrist_dev_r	arm_flex_l	arm_add_l	arm_rot_l	elbow_flex_l	pro_sup_l	wrist_flex_l	wrist_dev_l
      0.00000000	     14.84816863	      3.57531094	      3.83209845	      0.09657861	      0.94498322	     -0.32463818	     14.25138199	     -3.88055850	     -9.41172419	     10.04650564	      0.17534460	    -12.45149353	      0.00000000	      0.00000000	    -29.52266608	      4.01299198	      0.26891346	     13.98711045	      0.24412113	     -0.28259802	      0.00000000	      0.00000000	    -30.31204039	     -1.30782255	     -8.50115062	      2.05482418	    -12.74316954	      4.92888039	     36.89790321	     76.29629051	      0.00000000	      0.00000000	     13.56610298	    -26.87411696	     24.52197854	     56.47661148	     72.98353025	      0.00000000	      0.00000000
      0.00400000	     14.68727527	      3.56589835	      3.83338476	      0.10223224	      0.94366059	     -0.32431140	     14.65575912	     -3.82883777	     -9.31020799	     10.06814748	      0.17572232	    -12.45830192	      0.00000000	      0.00000000	    -29.55948980	      3.93118132	      0.35174189	     14.30470287	      0.24966416	     -0.39385274	      0.00000000	      0.00000000	    -30.11797226	     -1.31540711	     -8.59841491	      1.92891679	    -12.63326099	      4.97739986	     37.04483562	     76.31906162	      0.00000000	      0.00000000	     13.57600094	    -26.88909535	     24.47075757	     56.35324100	     73.00856539	      0.00000000	      0.00000000
      0.00800000	     14.54887839	      3.59496831	      3.90623526	      0.10794698	      0.94249882	     -0.32461803	     15.01911549	     -3.88070228	     -9.11377762	     10.20083340	      0.17803813	    -12.47310367	      0.00000000	      0.00000000	    -29.55453099	      3.88163146	      0.42380919	     14.73810767	      0.25722850	     -0.51605325	      0.00000000	      0.00000000	    -29.97696584	     -1.25072060	     -8.68731605	      1.87730289	    -12.60465806	      5.01764827	     37.14269193	     76.38086064	      0.00000000	      0.00000000	     13.64171238	    -26.72600593	     24.38565701	     56.19138951	     73.04009662	      0.00000000	      0.00000000
      0.01200000	     14.49676890	      3.65797143	      3.89444791	      0.11329389	      0.94135306	     -0.32461552	     15.44607245	     -3.95815795	     -8.90235734	     10.72226060	      0.18713875	    -12.25748328	      0.00000000	      0.00000000	    -29.58146261	      3.89987567	      0.56810630	     15.31318497	      0.26726550	     -0.36310142	      0.00000000	      0.00000000	    -29.97936136	     -1.26359938	     -8.73089573	      1.99760057	    -12.65785196	      4.78094387	     37.08535907	     76.47552763	      0.00000000	      0.00000000	     13.80391958	    -26.60584578	     24.23070535	     55.89821436	     73.19829671	      0.00000000	      0.00000000
      0.01600000	     14.41588475	      3.81455535	      3.99393942	      0.11905207	      0.94024472	     -0.32494223	     15.83757588	     -4.19060833	     -8.84786688	     11.25192255	      0.19638310	    -12.06395672	      0.00000000	      0.00000000	    -29.58205736	      3.93523661	      0.66717459	     15.87504588	      0.27707182	     -0.47617632	      0.00000000	      0.00000000	    -29.90904560	     -1.31865770	     -8.87138476	      2.01597690	    -12.65055810	      4.67304536	     37.00089839	     76.57879037	      0.00000000	      0.00000000	     13.88462337	    -26.53591140	     24.26106670	     55.74220599	     73.39259196	      0.00000000	      0.00000000
      0.02000000	     14.32393979	      3.89508042	      4.04061523	      0.12476134	      0.93913811	     -0.32500817	     16.25488446	     -4.31513142	     -8.69248390	     11.84257023	      0.20669184	    -11.96516625	      0.00000000	      0.00000000	    -29.59140503	      3.93318311	      0.86859011	     16.35129243	      0.28538389	     -0.60914277	      0.00000000	      0.00000000	    -29.81482785	     -1.33916358	     -8.95883065	      2.09648833	    -12.62038742	      4.63379026	     36.84218801	     76.71431131	      0.00000000	      0.00000000	     13.95289603	    -26.47224326	     24.24177931	     55.57633184	     73.50029312	      0.00000000	      0.00000000
      0.02400000	     14.23201441	      3.98510111	      4.12301442	      0.13049460	      0.93809886	     -0.32524388	     16.63987129	     -4.46730166	     -8.50523371	     12.45939352	      0.21745744	    -11.88162862	      0.00000000	      0.00000000	    -29.60926443	      3.92642088	      1.23502915	     16.85125979	      0.29410997	     -0.78265443	      0.00000000	      0.00000000	    -29.72148450	     -1.33539223	     -9.08399554	      2.15162461	    -12.58475467	      4.71142785	     36.73117115	     76.85790047	      0.00000000	      0.00000000	     14.01602188	    -26.37204939	     24.20317033	     55.38494442	     73.56403517	      0.00000000	      0.00000000
      0.02800000	     14.02981719	      4.17129174	      4.16532398	      0.13646319	      0.93677355	     -0.32560206	     17.26041250	     -4.76910637	     -8.35456952	     13.42239610	      0.23426501	    -11.44812388	      0.00000000	      0.00000000	    -29.60747506	      4.07355957	      1.46246430	     17.18654095	      0.29996173	     -0.91262127	      0.00000000	      0.00000000	    -29.48633372	     -1.45263880	     -9.20702403	      2.19343570	    -12.60647785	      4.44849169	     36.54852239	     76.94361280	      0.00000000	      0.00000000	     13.99328805	    -26.30249308	     24.30228719	     55.21850124	     74.09082385	      0.00000000	      0.00000000
      0.03200000	     13.97355839	      4.32471339	      4.49410561	      0.14209614	      0.93600481	     -0.32597494	     17.52500616	     -5.03923189	     -8.33419110	     14.09256803	      0.24596171	    -11.37252047	      0.00000000	      0.00000000	    -29.61606084	      3.99985425	      2.09745030	     17.73284278	      0.30949649	     -1.16426532	      0.00000000	      0.00000000	    -29.48340402	     -1.39858925	     -9.56085472	      2.57075363	    -12.47281901	      3.95802252	     35.84707960	     76.89115498	      0.00000000	      0.00000000	     14.08527339	    -26.25272554	     24.16698109	     55.04580587	     74.03201240	      0.00000000	      0.00000000
      0.03600000	     13.93092495	      4.42275569	      4.56659856	      0.14789696	      0.93509927	     -0.32609967	     17.78905699	     -5.17975489	     -7.90724527	     14.75530094	      0.25752858	    -11.23796908	      0.00000000	      0.00000000	    -29.62372442	      3.99407129	      2.27624278	     18.30828361	      0.31953983	     -1.45037827	      0.00000000	      0.00000000	    -29.44253761	     -1.40921208	     -9.69382533	      2.66724693	    -12.44516395	      4.36349561	     35.77016265	     77.27165342	      0.00000000	      0.00000000	     14.08914101	    -26.21354946	     24.24795044	     54.81782095	     74.21094760	      0.00000000	      0.00000000
      0.04000000	     13.85939870	      4.41244146	      4.64239018	      0.15385285	      0.93418776	     -0.32607818	     18.02263412	     -5.16897629	     -7.51361448	     15.35102469	      0.26792592	    -11.29525093	      0.00000000	      0.00000000	    -29.64868481	      3.88282036	      2.50070574	     18.79515027	      0.32803726	     -1.79905240	      0.00000000	      0.00000000	    -29.36124990	     -1.32006920	     -9.75712801	      2.74203579	    -12.40704444	      4.20428379	     35.62170071	     77.32201225	      0.00000000	      0.00000000	     14.07718400	    -26.11578230	     24.00544548	     54.73339409	     74.13352585	      0.00000000	      0.00000000
      0.04400000	     13.74479275	      4.55432449	      4.70119319	      0.15993625	      0.93322345	     -0.32625721	     18.42572548	     -5.38448954	     -7.17567615	     16.32196403	      0.28487201	    -10.87426055	      0.00000000	      0.00000000	    -29.64115346	      3.93728655	      2.67913157	     19.26901138	      0.33630769	     -2.14434418	      0.00000000	      0.00000000	    -29.22392617	     -1.38858882	     -9.91197315	      2.81830087	    -12.36553978	      3.71999237	     35.39260366	     76.95813173	      0.00000000	      0.00000000	     13.96417917	    -26.06178547	     23.99470016	     54.59688562	     74.28595607	      0.00000000	      0.00000000
      0.04800000	     13.67827519	      4.61238837	      4.76272744	      0.16609626	      0.93235528	     -0.32626637	     18.68018946	     -5.45675581	     -6.89471921	     17.10264755	      0.29849751	    -10.72154410	      0.00000000	      0.00000000	    -29.65619699	      3.89606299	      2.83745951	     19.78248302	      0.34526946	     -2.54605917	      0.00000000	      0.00000000	    -29.13119158	     -1.37485833	    -10.00212454	      2.83674633	    -12.32947878	      3.58761831	     35.29239046	     76.79552909	      0.00000000	      0.00000000	     13.89719286	    -26.00378256	     23.86599782	     54.46436139	     74.36426345	      0.00000000	      0.00000000
      0.05200000	     13.60693770	      4.58940909	      4.86011357	      0.17214590	      0.93159657	     -0.32648909	     18.76634633	     -5.40675487	     -6.32670692	     17.53884596	      0.30611061	    -10.78060419	      0.00000000	      0.00000000	    -29.65585839	      3.79152480	      3.19253426	     20.29459742	      0.35420755	     -2.94715720	      0.00000000	      0.00000000	    -29.02461827	     -1.24948076	    -10.07597732	      2.87859842	    -12.30144812	      3.68193098	     35.29135121	     76.89299569	      0.00000000	      0.00000000	     13.87287081	    -25.86637143	     23.74474265	     54.30554894	     74.30800799	      0.00000000	      0.00000000
      0.05600000	     13.55224142	      4.73894907	      4.81332716	      0.17840707	      0.93079858	     -0.32663292	     19.02077562	     -5.54127736	     -5.87011841	     18.44897661	      0.32199539	    -10.40951950	      0.00000000	      0.00000000	    -29.66595160	      3.90371368	      3.26412281	     20.84337399	      0.36378550	     -3.48761379	      0.00000000	      0.00000000	    -28.94088489	     -1.33914991	    -10.19029469	      3.00074081	    -12.32126206	      3.42765788	     35.02809496	     76.75136527	      0.00000000	      0.00000000	     13.68001692	    -25.77247370	     23.57349209	     54.15475680	     74.39352834	      0.00000000	      0.00000000
      0.06000000	     13.49937012	      4.77410853	      4.80811426	      0.18458869	      0.93013116	     -0.32677285	     19.22438602	     -5.56256857	     -5.51734058	     19.24461539	      0.33588190	    -10.32399744	      0.00000000	      0.00000000	    -29.67264792	      3.89333021	      3.40344825	     21.35615427	      0.37273521	     -4.04508192	      0.00000000	      0.00000000	    -28.87259367	     -1.28927311	    -10.23015724	      3.02675926	    -12.34183445	      3.35170830	     35.04798872	     76.63661854	      0.00000000	      0.00000000	     13.56672090	    -25.61911162	     23.24085005	     54.01437517	     74.27425544	      0.00000000	      0.00000000
      0.06400000	     13.45373788	      4.70971670	      4.91259380	      0.19082918	      0.92953682	     -0.32673887	     19.25019345	     -5.44277568	     -5.00981417	     19.74976674	      0.34469846	    -10.45599013	      0.00000000	      0.00000000	    -29.68076743	      3.71885304	      3.69394734	     21.85993388	      0.38152782	     -4.53041889	      0.00000000	      0.00000000	    -28.79024647	     -1.12600057	    -10.33035850	      3.04942441	    -12.31958772	      3.31703277	     35.04842829	     76.61651494	      0.00000000	      0.00000000	     13.40122653	    -25.57242372	     23.25850668	     53.87357645	     74.32284814	      0.00000000	      0.00000000
